<svg width="29" height="24" viewBox="0 0 29 24" fill="none" xmlns="http://www.w3.org/2000/svg">
<g clip-path="url(#clip0_341_374)">
<path fill-rule="evenodd" clip-rule="evenodd" d="M20.2746 10.1154C20.6642 9.72581 20.6642 9.09419 20.2746 8.70462C19.8853 8.31534 19.2543 8.315 18.8646 8.70385L14.98 12.58L11.0954 8.70385C10.7057 8.315 10.0746 8.31534 9.68536 8.70462C9.29579 9.09419 9.29579 9.72581 9.68536 10.1154L14.98 15.41L20.2746 10.1154Z" fill="black"/>
<mask id="mask0_341_374" style="mask-type:luminance" maskUnits="userSpaceOnUse" x="9" y="8" width="12" height="8">
<path fill-rule="evenodd" clip-rule="evenodd" d="M20.2746 10.1154C20.6642 9.72581 20.6642 9.09419 20.2746 8.70462C19.8853 8.31534 19.2543 8.315 18.8646 8.70385L14.98 12.58L11.0954 8.70385C10.7057 8.315 10.0746 8.31534 9.68536 8.70462C9.29579 9.09419 9.29579 9.72581 9.68536 10.1154L14.98 15.41L20.2746 10.1154Z" fill="white"/>
</mask>
<g mask="url(#mask0_341_374)">
<rect x="26.98" width="24" height="24" transform="rotate(90 26.98 0)" fill="black"/>
</g>
</g>
<defs>
<clipPath id="clip0_341_374">
<rect width="28.04" height="24" fill="white" transform="translate(0.959991)"/>
</clipPath>
</defs>
</svg>
