<svg width="28" height="28" viewBox="0 0 28 28" fill="none" xmlns="http://www.w3.org/2000/svg">
<path fill-rule="evenodd" clip-rule="evenodd" d="M20 6V5C20 4.44772 19.5523 4 19 4C18.4477 4 18 4.44772 18 5V6H10V5C10 4.44772 9.55228 4 9 4C8.44772 4 8 4.44772 8 5V6H7C5.89 6 5.01 6.9 5.01 8L5 22C5 23.1 5.89 24 7 24H21C22.1 24 23 23.1 23 22V8C23 6.9 22.1 6 21 6H20ZM7 22V11H21V22H7ZM9 14C9 13.4477 9.44772 13 10 13H13C13.5523 13 14 13.4477 14 14V17C14 17.5523 13.5523 18 13 18H10C9.44772 18 9 17.5523 9 17V14Z" fill="black"/>
<mask id="mask0_341_508" style="mask-type:luminance" maskUnits="userSpaceOnUse" x="5" y="4" width="18" height="20">
<path fill-rule="evenodd" clip-rule="evenodd" d="M20 6V5C20 4.44772 19.5523 4 19 4C18.4477 4 18 4.44772 18 5V6H10V5C10 4.44772 9.55228 4 9 4C8.44772 4 8 4.44772 8 5V6H7C5.89 6 5.01 6.9 5.01 8L5 22C5 23.1 5.89 24 7 24H21C22.1 24 23 23.1 23 22V8C23 6.9 22.1 6 21 6H20ZM7 22V11H21V22H7ZM9 14C9 13.4477 9.44772 13 10 13H13C13.5523 13 14 13.4477 14 14V17C14 17.5523 13.5523 18 13 18H10C9.44772 18 9 17.5523 9 17V14Z" fill="white"/>
</mask>
<g mask="url(#mask0_341_508)">
<rect x="2" y="2" width="24" height="24" fill="black"/>
</g>
</svg>
