<svg width="158" height="186" viewBox="0 0 158 186" fill="none" xmlns="http://www.w3.org/2000/svg">
<g filter="url(#filter0_f_28_2249)">
<circle cx="92.9734" cy="120.98" r="24.375" transform="rotate(-71.771 92.9734 120.98)" fill="#F0CEA0"/>
</g>
<g filter="url(#filter1_f_28_2249)">
<circle cx="61.0021" cy="61.535" r="20.625" transform="rotate(-71.771 61.0021 61.535)" fill="#A9CBA6"/>
</g>
<path d="M57.1296 92.7592C67.9535 92.7592 76.7592 83.9535 76.7592 73.1296C76.7594 62.3058 67.9535 53.5 57.1296 53.5C46.3058 53.5 37.5 62.3058 37.5 73.1296C37.5 83.9535 46.3058 92.7592 57.1296 92.7592ZM45.8693 85.7659C46.7776 80.2907 51.5043 76.2404 57.13 76.2404C62.7556 76.2404 67.4822 80.2907 68.3905 85.7658C65.3956 88.4373 61.4494 90.0639 57.1298 90.0639C52.8102 90.0639 48.8639 88.4375 45.8693 85.7659ZM52.0227 68.4378C52.0227 65.6215 54.3139 63.3305 57.1298 63.3305C59.9461 63.3305 62.2371 65.6217 62.2371 68.4378C62.2371 71.2539 59.9459 73.545 57.1298 73.545C54.3139 73.545 52.0227 71.254 52.0227 68.4378ZM57.1296 56.1953C66.4674 56.1953 74.0639 63.7921 74.0639 73.1296C74.0639 76.9859 72.7673 80.5446 70.5883 83.3947C69.2798 79.231 66.1197 75.9501 62.1035 74.4448C63.8303 73.0124 64.9324 70.8514 64.9324 68.4378C64.9324 64.1354 61.4322 60.6352 57.1298 60.6352C52.8276 60.6352 49.3274 64.1354 49.3274 68.4378C49.3274 70.8514 50.4294 73.0124 52.1561 74.4448C48.1397 75.9499 44.9795 79.231 43.6709 83.3949C41.4919 80.5449 40.1953 76.9861 40.1953 73.1296C40.1953 63.7921 47.7921 56.1953 57.1296 56.1953ZM104.12 100.491C93.2965 100.491 84.4908 109.297 84.4908 120.12C84.4908 130.944 93.2965 139.75 104.12 139.75C114.944 139.75 123.75 130.944 123.75 120.12C123.75 109.297 114.944 100.491 104.12 100.491ZM104.12 103.186C113.458 103.186 121.055 110.783 121.055 120.12C121.055 123.977 119.758 127.536 117.579 130.385C116.271 126.222 113.11 122.941 109.094 121.436C110.821 120.003 111.923 117.842 111.923 115.429C111.923 111.126 108.423 107.626 104.12 107.626C99.818 107.626 96.3178 111.126 96.3178 115.429C96.3178 117.842 97.4198 120.003 99.1467 121.436C95.1303 122.941 91.9702 126.222 90.6617 130.385C88.4827 127.536 87.1861 123.977 87.1861 120.12C87.1859 110.783 94.7826 103.186 104.12 103.186ZM99.0129 115.429C99.0129 112.612 101.304 110.321 104.12 110.321C106.936 110.321 109.227 112.612 109.227 115.429C109.227 118.245 106.936 120.536 104.12 120.536C101.304 120.536 99.0129 118.245 99.0129 115.429ZM92.8597 132.757C93.768 127.281 98.4948 123.231 104.12 123.231C109.746 123.231 114.473 127.281 115.381 132.757C112.386 135.428 108.44 137.055 104.12 137.055C99.8008 137.055 95.8545 135.428 92.8597 132.757ZM96.6421 85.9918C97.095 85.7624 97.3807 85.2976 97.3807 84.7897V81.0483C104.496 81.2258 111.756 83 114.202 92.5237C114.339 93.0581 114.788 93.4548 115.335 93.5252C115.393 93.5326 115.451 93.5362 115.508 93.5362C115.992 93.5362 116.446 93.2744 116.685 92.8431C119.505 87.7689 119.461 81.804 116.569 76.8872C114.868 73.9957 112.226 71.5968 108.929 69.9497C105.645 68.3089 101.765 67.4026 97.3806 67.2498V63.6664C97.3806 63.143 97.0775 62.6668 96.6033 62.4452C96.1289 62.2239 95.5695 62.2967 95.1679 62.6329L81.7188 73.8892C81.4013 74.155 81.2237 74.5519 81.2368 74.9658C81.2501 75.3797 81.4528 75.7643 81.7867 76.0092L95.2358 85.8763C95.6456 86.1768 96.1893 86.2216 96.6421 85.9918ZM94.6854 79.6846V82.1298L84.767 74.8531L94.6854 66.5519V68.5744C94.6854 69.3186 95.2888 69.922 96.0331 69.922C104.492 69.922 111.13 72.959 114.246 78.2541C116.072 81.3576 116.528 84.969 115.611 88.3804C113.933 84.6413 111.273 81.9322 107.672 80.3035C103.84 78.5706 99.6379 78.3371 96.0329 78.3371C95.2888 78.337 94.6854 78.9402 94.6854 79.6846ZM79.4633 117.241L66.0142 107.374C65.6047 107.073 65.0611 107.029 64.6079 107.258C64.1548 107.488 63.8693 107.952 63.8693 108.46V112.202C56.7538 112.024 49.4936 110.25 47.0481 100.726C46.9109 100.192 46.4619 99.7952 45.9146 99.7248C45.3666 99.6547 44.8326 99.9247 44.5646 100.407C41.7449 105.481 41.7886 111.446 44.6812 116.363C46.3822 119.254 49.024 121.653 52.321 123.3C55.6053 124.941 59.4848 125.847 63.8693 126V129.583C63.8693 130.107 64.1723 130.583 64.6465 130.805C64.8286 130.889 65.0232 130.931 65.2167 130.931C65.5272 130.931 65.8345 130.824 66.0819 130.617L79.531 119.361C79.8486 119.095 80.0261 118.698 80.013 118.284C79.9997 117.87 79.797 117.486 79.4633 117.241ZM66.5646 126.698V124.676C66.5646 123.932 65.9612 123.328 65.2169 123.328C56.7578 123.328 50.1196 120.291 47.0043 114.996C45.1784 111.893 44.7216 108.281 45.6388 104.87C47.3167 108.609 49.9766 111.318 53.5782 112.947C57.4103 114.68 61.6121 114.913 65.2171 114.913C65.9613 114.913 66.5647 114.31 66.5647 113.566V111.12L76.4831 118.397L66.5646 126.698Z" fill="black"/>
<defs>
<filter id="filter0_f_28_2249" x="28.5918" y="56.5985" width="128.763" height="128.763" filterUnits="userSpaceOnUse" color-interpolation-filters="sRGB">
<feFlood flood-opacity="0" result="BackgroundImageFix"/>
<feBlend mode="normal" in="SourceGraphic" in2="BackgroundImageFix" result="shape"/>
<feGaussianBlur stdDeviation="20" result="effect1_foregroundBlur_28_2249"/>
</filter>
<filter id="filter1_f_28_2249" x="0.37146" y="0.904419" width="121.261" height="121.261" filterUnits="userSpaceOnUse" color-interpolation-filters="sRGB">
<feFlood flood-opacity="0" result="BackgroundImageFix"/>
<feBlend mode="normal" in="SourceGraphic" in2="BackgroundImageFix" result="shape"/>
<feGaussianBlur stdDeviation="20" result="effect1_foregroundBlur_28_2249"/>
</filter>
</defs>
</svg>
