<svg width="181" height="186" viewBox="0 0 181 186" fill="none" xmlns="http://www.w3.org/2000/svg">
<g filter="url(#filter0_f_28_2253)">
<ellipse cx="28.7206" cy="24.1909" rx="28.7206" ry="24.1909" transform="matrix(0.930619 -0.36599 0.600267 0.7998 30 115.114)" fill="#A1D9D6"/>
</g>
<g filter="url(#filter1_f_28_2253)">
<ellipse cx="24.3021" cy="20.4692" rx="24.3021" ry="20.4692" transform="matrix(0.930619 -0.36599 0.600267 0.7998 80.1941 51.598)" fill="#A9CBA6"/>
</g>
<g clip-path="url(#clip0_28_2253)">
<path d="M126.094 114.182V62.1506H53.9062V114.182H48.75V127.19H131.25V114.182H126.094ZM56.4844 64.7522H123.516V114.182H56.4844V64.7522ZM94.357 116.783L93.068 119.385H86.932L85.643 116.783H94.357ZM128.672 124.588H51.3281V116.783H82.7555L85.3336 121.987H94.6664L97.2445 116.783H128.672V124.588ZM59.0625 111.58H120.938V67.3538H59.0625V111.58ZM61.6406 69.9553H118.359V108.979H61.6406V69.9553ZM99.8742 84.6281L98.0438 82.807L88.7109 92.4328L84.457 88.1663L82.6523 89.9874L88.7109 96.127L99.8742 84.6281ZM69.375 88.1663H70.6641C71.0059 88.1663 71.3338 88.3033 71.5756 88.5472C71.8173 88.7912 71.9531 89.1221 71.9531 89.467C71.9531 89.812 71.8173 90.1429 71.5756 90.3868C71.3338 90.6308 71.0059 90.7678 70.6641 90.7678H69.375V101.174H110.625V90.7678H109.336C108.994 90.7678 108.666 90.6308 108.424 90.3868C108.183 90.1429 108.047 89.812 108.047 89.467C108.047 89.1221 108.183 88.7912 108.424 88.5472C108.666 88.3033 108.994 88.1663 109.336 88.1663H110.625V77.76H69.375V88.1663ZM71.9531 80.3616H108.047V85.7988C107.289 86.0602 106.63 86.5544 106.164 87.2122C105.698 87.87 105.447 88.6584 105.447 89.467C105.447 90.2757 105.698 91.0641 106.164 91.7219C106.63 92.3796 107.289 92.8738 108.047 93.1352V98.5725H71.9531V93.1352C72.7115 92.8738 73.3698 92.3796 73.836 91.7219C74.3021 91.0641 74.5527 90.2757 74.5527 89.467C74.5527 88.6584 74.3021 87.87 73.836 87.2122C73.3698 86.5544 72.7115 86.0602 71.9531 85.7988V80.3616Z" fill="black"/>
</g>
<defs>
<filter id="filter0_f_28_2253" x="0.825439" y="61.927" width="140.847" height="124.046" filterUnits="userSpaceOnUse" color-interpolation-filters="sRGB">
<feFlood flood-opacity="0" result="BackgroundImageFix"/>
<feBlend mode="normal" in="SourceGraphic" in2="BackgroundImageFix" result="shape"/>
<feGaussianBlur stdDeviation="20" result="effect1_foregroundBlur_28_2253"/>
</filter>
<filter id="filter1_f_28_2253" x="49.354" y="0.440063" width="131.486" height="117.27" filterUnits="userSpaceOnUse" color-interpolation-filters="sRGB">
<feFlood flood-opacity="0" result="BackgroundImageFix"/>
<feBlend mode="normal" in="SourceGraphic" in2="BackgroundImageFix" result="shape"/>
<feGaussianBlur stdDeviation="20" result="effect1_foregroundBlur_28_2253"/>
</filter>
<clipPath id="clip0_28_2253">
<rect x="48.75" y="51.7444" width="82.5" height="83.25" fill="white"/>
</clipPath>
</defs>
</svg>
