<svg width="32" height="32" viewBox="0 0 32 32" fill="none" xmlns="http://www.w3.org/2000/svg">
<rect width="32" height="32" rx="16" fill="white"/>
<path fill-rule="evenodd" clip-rule="evenodd" d="M19 20.95C19.3846 20.95 19.7016 21.2395 19.745 21.6125L19.75 21.7V22.7613L20.5 22.7619C21.2908 22.7619 21.9386 23.3739 21.9959 24.15L22 24.2619H10C10 23.4335 10.6716 22.7619 11.5 22.7619L12.25 22.7613V21.7C12.25 21.2858 12.5858 20.95 13 20.95C13.3846 20.95 13.7016 21.2395 13.745 21.6125L13.75 21.7V22.7613H15.25V21.7682C15.25 21.354 15.5858 21.0182 16 21.0182C16.3846 21.0182 16.7016 21.3077 16.745 21.6807L16.75 21.7682V22.7613H18.25V21.7C18.25 21.2858 18.5858 20.95 19 20.95ZM15.673 7.4182C15.8213 7.21062 16.1785 7.21062 16.3269 7.4182L20.57 13.3567C20.991 13.9657 21.247 14.8668 21.25 15.5713V15.5871C21.25 18.0644 18.8355 20.0662 15.8818 20.0114C13.3059 19.9639 11.1174 18.29 10.7914 16.1353C10.7682 15.9825 10.7549 15.8312 10.751 15.6814C10.7317 14.9381 10.989 13.9944 11.4334 13.3519L15.673 7.4182ZM16 13.45C14.7574 13.45 13.75 14.6253 13.75 16.075C13.75 17.5248 14.7574 18.7 16 18.7C17.2426 18.7 18.25 17.5248 18.25 16.075C18.25 14.6253 17.2426 13.45 16 13.45Z" fill="#163435"/>
</svg>
