<svg width="32" height="32" viewBox="0 0 32 32" fill="none" xmlns="http://www.w3.org/2000/svg">
<rect width="32" height="32" rx="16" fill="white"/>
<path fill-rule="evenodd" clip-rule="evenodd" d="M19.4427 7.75C20.8864 7.75 21.5353 7.87982 22.0791 8.12575L22.2482 8.20726L22.3316 8.25087C22.9427 8.5777 23.4223 9.0573 23.7491 9.66841L23.8345 9.83576C24.079 10.3423 24.22 10.9106 24.2457 12.127L24.25 12.5573V19.4427L24.2457 19.873C24.2214 21.0218 24.0943 21.5926 23.8743 22.0791L23.7927 22.2482L23.7491 22.3316C23.4223 22.9427 22.9427 23.4223 22.3316 23.7491L22.1642 23.8345C21.6577 24.079 21.0894 24.22 19.873 24.2457L19.4427 24.25H12.5573L12.127 24.2457C10.9782 24.2214 10.4074 24.0943 9.92085 23.8743L9.75182 23.7927L9.66841 23.7491C9.0573 23.4223 8.5777 22.9427 8.25087 22.3316L8.16554 22.1642C7.90743 21.6296 7.7647 21.0261 7.75108 19.6642L7.75 12.5573C7.75 11.1136 7.87982 10.4647 8.12575 9.92085L8.20726 9.75182L8.25087 9.66841C8.5777 9.0573 9.0573 8.5777 9.66841 8.25087L9.83576 8.16554C10.3704 7.90743 10.9739 7.7647 12.3358 7.75108L19.4427 7.75ZM19.6316 9.62562L12.5573 9.625L12.1931 9.6275L11.8801 9.63527L11.6124 9.64873C11.53 9.65422 11.4541 9.66072 11.3838 9.66832L11.1881 9.69444C10.9767 9.7289 10.8203 9.77758 10.6752 9.84349L10.5527 9.90427C10.2683 10.0563 10.0563 10.2683 9.90427 10.5527L9.84349 10.6752C9.77758 10.8203 9.7289 10.9767 9.69444 11.1881L9.66832 11.3838C9.66072 11.4541 9.65422 11.53 9.64873 11.6124L9.63527 11.8801L9.6275 12.1931C9.62665 12.2493 9.62603 12.3077 9.62562 12.3684V19.6316L9.63116 19.9877C9.64969 20.6986 9.71171 21.0314 9.84018 21.3174L9.90427 21.4473C10.0563 21.7317 10.2683 21.9437 10.5527 22.0957L10.6752 22.1565C10.8203 22.2224 10.9767 22.2711 11.1881 22.3056L11.3838 22.3317C11.4541 22.3393 11.53 22.3458 11.6124 22.3513L11.8801 22.3647L12.1931 22.3725L12.5573 22.375L19.6316 22.3744L19.9694 22.3693L20.259 22.3587C20.3927 22.352 20.5107 22.3431 20.6162 22.3317L20.8119 22.3056C21.0233 22.2711 21.1797 22.2224 21.3248 22.1565L21.4473 22.0957C21.7317 21.9437 21.9437 21.7317 22.0957 21.4473L22.1565 21.3248C22.2224 21.1797 22.2711 21.0233 22.3056 20.8119L22.3317 20.6162C22.3393 20.5459 22.3458 20.47 22.3513 20.3876L22.3647 20.1199L22.3725 19.8069L22.375 19.4427L22.3744 12.3684L22.3693 12.0306L22.3587 11.741C22.352 11.6073 22.3431 11.4893 22.3317 11.3838L22.3056 11.1881C22.2711 10.9767 22.2224 10.8203 22.1565 10.6752L22.0957 10.5527C21.9437 10.2683 21.7317 10.0563 21.4473 9.90427L21.3248 9.84349C21.1797 9.77758 21.0233 9.7289 20.8119 9.69444L20.6162 9.66832C20.5459 9.66072 20.47 9.65422 20.3876 9.64873L20.1199 9.63527L19.8069 9.6275C19.7507 9.62665 19.6923 9.62603 19.6316 9.62562ZM16.839 12.6705C16.8042 13.1199 16.8405 13.5742 16.8292 14.0264C16.8195 14.4303 16.9569 14.5442 17.3229 14.327C17.7861 14.0523 18.2529 13.7835 18.7237 13.522C19.2605 13.2238 19.7322 13.3261 19.98 13.7819C20.218 14.2201 20.0683 14.6579 19.5618 14.9606C19.0848 15.2463 18.6015 15.5206 18.1185 15.7962C17.813 15.9707 17.8011 16.1375 18.1148 16.3165C18.5979 16.5918 19.0812 16.8667 19.5584 17.1518C20.0662 17.4549 20.2183 17.892 19.9825 18.3295C19.7387 18.7811 19.2608 18.8844 18.7259 18.5883C18.2853 18.3448 17.8533 18.0845 17.4146 17.8371C16.9285 17.5633 16.8445 17.6088 16.8384 18.1487L16.8273 18.8275C16.8253 19.0538 16.828 19.2797 16.8439 19.5046C16.8793 20.0007 16.7254 20.3826 16.3092 20.6563H15.6823C15.2668 20.3557 15.118 19.9534 15.1578 19.4425C15.1929 18.9937 15.1559 18.5394 15.1675 18.0879C15.1779 17.684 15.0429 17.5703 14.6763 17.7885C14.214 18.0641 13.7472 18.3323 13.2767 18.5932C12.739 18.8911 12.2697 18.7893 12.0204 18.3335C11.7815 17.8969 11.9303 17.4585 12.4362 17.1561C12.8982 16.8802 13.3656 16.6135 13.8355 16.351C14.1862 16.1552 14.2107 15.9746 13.8428 15.7693C13.3729 15.5069 12.9058 15.2396 12.4439 14.964C11.9337 14.6594 11.7821 14.2274 12.0171 13.7902C12.263 13.3325 12.7338 13.2277 13.2706 13.5247C13.7108 13.7682 14.1422 14.0288 14.5803 14.276C15.0829 14.5595 15.1559 14.5137 15.1593 13.9191C15.1617 13.5024 15.1871 13.0832 15.1529 12.669C15.1028 12.0598 15.3771 11.6852 15.7184 11.5535C16.2381 11.3528 16.9136 11.7148 16.839 12.6705Z" fill="#163435"/>
</svg>
