<svg width="32" height="32" viewBox="0 0 32 32" fill="none" xmlns="http://www.w3.org/2000/svg">
<rect width="32" height="32" rx="16" fill="white"/>
<path fill-rule="evenodd" clip-rule="evenodd" d="M9.60667 12.3503C9.62269 12.3554 9.6385 12.3612 9.65406 12.3676L23.681 18.1325C24.0431 18.2813 24.2299 18.6836 24.1098 19.0563C24.0041 19.384 23.6701 19.5686 23.3457 19.4922L23.3459 22.2896H7.67505L9.5613 13.8357L9.22045 13.6959C8.85833 13.547 8.6716 13.1447 8.79172 12.7721C8.90282 12.4274 9.26697 12.2408 9.60667 12.3503ZM14.5702 17.9018C12.8393 17.9018 11.4361 19.305 11.4361 21.036H17.7044C17.7044 19.305 16.3012 17.9018 14.5702 17.9018Z" fill="#163435"/>
<path fill-rule="evenodd" clip-rule="evenodd" d="M13.9283 12.3673C15.4059 9.70157 18.7648 8.73842 21.4306 10.2161L21.4029 10.2022L20.8865 8.39845C20.8271 8.19156 20.9259 7.97704 21.1125 7.88493L21.1864 7.85638L21.3944 7.7966C21.6267 7.73014 21.8695 7.865 21.936 8.09734L23.0191 11.8744L19.242 12.9574C19.0098 13.0242 18.7666 12.8899 18.6999 12.6575L18.6405 12.4495C18.5734 12.2163 18.7085 11.9746 18.9411 11.908L21.1426 11.2774C21.0612 11.2599 20.9777 11.227 20.8955 11.1814C20.5026 10.9637 20.0309 10.9213 19.613 10.836C17.8251 10.4709 15.9324 11.2814 15.0009 12.9619C14.3326 14.1675 14.2893 15.5937 14.8499 16.8251C14.9902 17.1333 14.8541 17.4969 14.5458 17.6372C14.2376 17.7775 13.874 17.6414 13.7337 17.3332C13.0137 15.7518 13.0696 13.9165 13.9283 12.3673Z" fill="#163435"/>
</svg>
