<svg width="145" height="197" viewBox="0 0 145 197" fill="none" xmlns="http://www.w3.org/2000/svg">
<g filter="url(#filter0_f_21_2132)">
<circle cx="61.375" cy="61.375" r="20.625" fill="#F0CEA0"/>
</g>
<g filter="url(#filter1_f_21_2132)">
<circle cx="80.125" cy="132.625" r="24.375" fill="#A9CBA6"/>
</g>
<path d="M52 123.25L27.4271 135.536C24.9337 136.783 22 134.97 22 132.182V73.0676C22 71.6472 22.8025 70.3487 24.0729 69.7135L52 55.75M52 123.25L82 138.25M52 123.25V55.75M52 123.25L58.0577 110.125M82 138.25V70.75M82 138.25L87.625 135.438M82 70.75L106.573 58.4635C109.066 57.2168 112 59.0299 112 61.8176V120.932C112 122.353 111.197 123.651 109.927 124.286L87.625 135.438M82 70.75L52 55.75M81.5673 112L72.0023 94.2364C70.5364 91.5141 66.5913 91.6355 65.2957 94.4427L58.0577 110.125M81.5673 112L77.864 110.766C76.6863 110.373 75.3878 110.68 74.5099 111.557L74.0673 112C73.0318 113.036 71.3528 113.036 70.3173 112C69.2818 110.964 67.6028 110.964 66.5673 112L66.3117 112.256C65.3547 113.213 63.8768 113.414 62.6985 112.748L58.0577 110.125M81.5673 112L87.625 135.438" stroke="black" stroke-width="4" stroke-linecap="round" stroke-linejoin="round"/>
<path d="M89.5 74.5V74.5C90.7331 74.5 91.9492 74.7871 93.0521 75.3385L95.125 76.375L97.1979 75.3385C98.3008 74.7871 99.5169 74.5 100.75 74.5V74.5" stroke="black" stroke-width="4" stroke-linecap="round" stroke-linejoin="round"/>
<path d="M29.5 108.25C33.25 108.25 41.5 106 44.5 97C48.25 85.75 57.625 80.125 67 80.125C76.375 80.125 93.25 91.375 110.125 80.125" stroke="black" stroke-width="4" stroke-linecap="round" stroke-dasharray="10 10"/>
<path d="M98.8752 128.875V119.449M98.8752 119.449H91.3754L98.4066 107.287H91.375L98.8752 95.125L106.374 107.287H99.3438L106.375 119.449H98.8752Z" stroke="black" stroke-width="4" stroke-linecap="square" stroke-linejoin="round"/>
<path d="M28.5588 89.3702L35.1242 100.75L41.6896 89.3702C43.3582 86.4779 42.9376 82.8344 40.6538 80.3984C37.6593 77.2043 32.5891 77.2043 29.5946 80.3984C27.3108 82.8344 26.8902 86.4779 28.5588 89.3702Z" stroke="black" stroke-width="4" stroke-linecap="round" stroke-linejoin="round"/>
<circle cx="35.125" cy="85.75" r="2" stroke="black" stroke-width="3.5"/>
<defs>
<filter id="filter0_f_21_2132" x="0.75" y="0.75" width="121.25" height="121.25" filterUnits="userSpaceOnUse" color-interpolation-filters="sRGB">
<feFlood flood-opacity="0" result="BackgroundImageFix"/>
<feBlend mode="normal" in="SourceGraphic" in2="BackgroundImageFix" result="shape"/>
<feGaussianBlur stdDeviation="20" result="effect1_foregroundBlur_21_2132"/>
</filter>
<filter id="filter1_f_21_2132" x="15.75" y="68.25" width="128.75" height="128.75" filterUnits="userSpaceOnUse" color-interpolation-filters="sRGB">
<feFlood flood-opacity="0" result="BackgroundImageFix"/>
<feBlend mode="normal" in="SourceGraphic" in2="BackgroundImageFix" result="shape"/>
<feGaussianBlur stdDeviation="20" result="effect1_foregroundBlur_21_2132"/>
</filter>
</defs>
</svg>
