<svg width="32" height="32" viewBox="0 0 32 32" fill="none" xmlns="http://www.w3.org/2000/svg">
<rect width="32" height="32" rx="16" fill="white"/>
<path fill-rule="evenodd" clip-rule="evenodd" d="M20.6156 12.7885C21.6186 12.7885 21.9823 12.8929 22.349 13.089C22.7156 13.2851 23.0034 13.5729 23.1995 13.9395C23.3956 14.3062 23.5 14.6699 23.5 15.6729V20.6504C23.5 21.6534 23.3956 22.0171 23.1995 22.3837C23.0034 22.7504 22.7156 23.0381 22.349 23.2342C21.9823 23.4303 21.6186 23.5348 20.6156 23.5348H11.3844C10.3814 23.5348 10.0177 23.4303 9.65105 23.2342C9.28438 23.0381 8.99662 22.7504 8.80052 22.3837C8.60443 22.0171 8.5 21.6534 8.5 20.6504V15.6729C8.5 14.6699 8.60443 14.3062 8.80052 13.9395C8.99662 13.5729 9.28438 13.2851 9.65105 13.089C10.0177 12.8929 10.3814 12.7885 11.3844 12.7885H20.6156ZM20.125 14.4348H11.875C11.2537 14.4348 10.75 14.9385 10.75 15.5598V17.8098C10.75 18.4311 11.2537 18.9348 11.875 18.9348H20.125C20.7463 18.9348 21.25 18.4311 21.25 17.8098V15.5598C21.25 14.9385 20.7463 14.4348 20.125 14.4348ZM16 15.25C16.8284 15.25 17.5 15.9216 17.5 16.75C17.5 17.5784 16.8284 18.25 16 18.25C15.1716 18.25 14.5 17.5784 14.5 16.75C14.5 15.9216 15.1716 15.25 16 15.25ZM21.0037 10.8812C21.2744 10.8872 21.4907 11.1084 21.4907 11.3792C21.4907 11.6499 21.2744 11.8711 21.0037 11.8771H20.0079V12.7747H19.0111V11.8771H18.0152C17.8347 11.8811 17.6662 11.7871 17.5747 11.6314C17.4833 11.4756 17.4833 11.2827 17.5747 11.1269C17.6662 10.9712 17.8347 10.8772 18.0152 10.8812H21.0037ZM13.5186 10.8812C13.7893 10.8872 14.0056 11.1084 14.0056 11.3792C14.0056 11.6499 13.7893 11.8711 13.5186 11.8771H12.5218V12.7747H11.526V11.8771H10.5301C10.3496 11.8811 10.1811 11.7871 10.0896 11.6314C9.9982 11.4756 9.9982 11.2827 10.0896 11.1269C10.1811 10.9712 10.3496 10.8772 10.5301 10.8812H13.5186ZM14.8405 7C15.6939 7 16.3984 7.70161 16.3984 8.55502V12.7747H15.4026V8.55502C15.4026 8.23608 15.1594 7.99584 14.8405 7.99584C14.5215 7.99584 14.2813 8.23608 14.2813 8.55502V9.20562C14.2853 9.38614 14.1913 9.5547 14.0356 9.64613C13.8799 9.73757 13.6869 9.73757 13.5312 9.64613C13.3754 9.5547 13.2814 9.38614 13.2854 9.20562V8.55502C13.2854 7.70161 13.9871 7 14.8405 7Z" fill="#163435"/>
</svg>
