<svg width="24" height="24" viewBox="0 0 24 24" fill="none" xmlns="http://www.w3.org/2000/svg">
<path fill-rule="evenodd" clip-rule="evenodd" d="M11.2795 3C15.3877 3 18.717 6.3985 18.717 10.5906C18.717 15.9833 12.2079 21.1344 11.3688 21.7766L11.3023 21.8265L11.2795 21.844L11.2568 21.8265L11.1903 21.7766C10.3503 21.1344 3.84204 15.9841 3.84204 10.5906C3.84204 6.3985 7.17142 3 11.2795 3ZM11.2795 6.157C10.1836 6.157 9.13258 6.59235 8.35764 7.36729C7.58271 8.14223 7.14735 9.19326 7.14735 10.2892C7.14735 11.3851 7.58271 12.4361 8.35764 13.2111C9.13258 13.986 10.1836 14.4214 11.2795 14.4214C12.3755 14.4214 13.4265 13.986 14.2014 13.2111C14.9764 12.4361 15.4117 11.3851 15.4117 10.2892C15.4117 9.19326 14.9764 8.14223 14.2014 7.36729C13.4265 6.59235 12.3755 6.157 11.2795 6.157Z" fill="black"/>
</svg>
