<svg width="32" height="32" viewBox="0 0 32 32" fill="none" xmlns="http://www.w3.org/2000/svg">
<rect width="32" height="32" rx="16" fill="white"/>
<path fill-rule="evenodd" clip-rule="evenodd" d="M8.125 16.9538C8.125 20.568 11.0573 23.5003 14.6715 23.5003C17.466 23.5003 19.9267 21.732 20.8435 19.1407C20.9919 18.7255 20.5909 18.3246 20.1758 18.4712C19.5911 18.6796 18.9728 18.7856 18.3386 18.7856C16.8585 18.7856 15.3316 18.6796 14.1458 17.4792C12.9601 16.2787 12.8397 14.843 12.8397 13.2866C12.8397 12.6525 12.9457 12.0342 13.1541 11.4495C13.2777 11.0945 13.0039 10.75 12.663 10.75C12.6047 10.75 12.5447 10.7606 12.4846 10.7818C9.89322 11.6986 8.125 14.1593 8.125 16.9538Z" fill="#163435"/>
</svg>
