<svg width="32" height="32" viewBox="0 0 32 32" fill="none" xmlns="http://www.w3.org/2000/svg">
<rect width="32" height="32" rx="16" fill="white"/>
<path fill-rule="evenodd" clip-rule="evenodd" d="M12.3375 9.89488L12.4589 11.5308C12.4966 12.0391 12.1347 12.4899 11.6304 12.563L11.0956 12.6405C10.5652 12.7173 10.073 12.3497 9.99611 11.8193C9.98204 11.7222 9.98278 11.6235 9.99831 11.5266L10.2626 9.878C10.3321 9.444 10.6847 9.11097 11.122 9.06627L11.3239 9.04562C11.8306 8.99382 12.2834 9.36262 12.3352 9.86935C12.3361 9.87785 12.3368 9.88636 12.3375 9.89488ZM13.4191 13.8754L15.2359 19.6163C15.3 19.8186 15.3046 20.0255 15.2596 20.2182L18.8477 19.3895C19.3293 19.2784 19.8275 19.4904 20.0813 19.9144L21.016 21.4756C21.4477 22.1967 21.2131 23.1313 20.492 23.563C20.261 23.7013 19.9974 23.7758 19.7281 23.779L19.0242 23.7872L12.675 23.8538C11.8466 23.8625 11.168 23.198 11.1593 22.3697L11.1593 21.1815C10.5939 21.1298 10.1431 20.663 10.1256 20.0811C10.1253 20.0702 10.1251 20.0593 10.1251 20.0484L10.1175 14.5256C10.1168 14.0154 10.4554 13.567 10.9463 13.4279L12.0222 13.123C12.6147 12.9551 13.2333 13.2884 13.4191 13.8754Z" fill="#163435"/>
</svg>
