<svg width="191" height="173" viewBox="0 0 191 173" fill="none" xmlns="http://www.w3.org/2000/svg">
<g filter="url(#filter0_f_28_2251)">
<circle cx="64.625" cy="107.695" r="24.375" fill="#F0CEA0"/>
</g>
<g filter="url(#filter1_f_28_2251)">
<circle cx="129.784" cy="61.364" r="20.625" fill="#A1D9D6"/>
</g>
<path d="M77.1211 127.993L72.9097 116.126L61.2749 120.792L78.2007 81.9889L80.6543 83.0596L66.3428 115.876L74.4979 112.602L77.4155 120.828L93.3509 85.5222L95.7956 86.6196L77.1211 127.993Z" fill="black"/>
<path d="M96.4467 87.6279C94.8022 87.6296 93.1918 87.1589 91.8071 86.2717L90.3527 85.3794C89.1777 84.6268 87.7755 84.311 86.3912 84.4872L84.6781 84.7103C82.6711 84.9727 80.6358 84.5189 78.9304 83.4287C77.2249 82.3385 75.9586 80.6818 75.3542 78.7501L74.8367 77.0638C74.4188 75.7346 73.5472 74.5945 72.3741 73.8428L70.9198 72.9505C69.2134 71.8627 67.9457 70.2074 67.3401 68.2765C66.7346 66.3456 66.83 64.2628 67.6096 62.3954L68.2698 60.7983C68.8103 59.4964 68.8703 58.0449 68.4393 56.7029L67.9218 55.0522C67.3145 53.1198 67.4093 51.035 68.1897 49.1658C68.97 47.2965 70.3857 45.7631 72.1867 44.8361L73.7214 44.0509C74.9615 43.4059 75.9346 42.3444 76.4695 41.053L77.1298 39.4559C77.9043 37.5873 79.3133 36.0518 81.1086 35.1199C82.9039 34.1879 84.9705 33.9193 86.9444 34.3612L88.6307 34.736C89.9919 35.0493 91.42 34.8724 92.6636 34.2363L94.1983 33.4422C95.9943 32.499 98.066 32.2217 100.047 32.6594C102.028 33.097 103.79 34.2214 105.021 35.8334L106.074 37.2075C106.919 38.3132 108.125 39.087 109.482 39.3934L111.169 39.7682C113.144 40.2073 114.901 41.3296 116.13 42.9374C117.36 44.5452 117.982 46.5352 117.887 48.5567L117.798 50.2966C117.735 51.6899 118.164 53.0609 119.011 54.1689L120.064 55.543C121.297 57.1492 121.922 59.139 121.831 61.1615C121.74 63.184 120.937 65.1093 119.565 66.5978L118.405 67.8648C117.46 68.8919 116.908 70.2185 116.843 71.6122L116.763 73.3431C116.675 75.3652 115.875 77.291 114.506 78.7813C113.136 80.2716 111.284 81.2306 109.277 81.4893L107.564 81.7123C106.193 81.8989 104.931 82.5585 103.995 83.5771L102.826 84.853C102.015 85.7347 101.029 86.4371 99.9299 86.915C98.8312 87.3928 97.6448 87.6357 96.4467 87.6279ZM87.1764 81.7302C88.8206 81.7304 90.4305 82.201 91.816 83.0864L93.2704 83.9786C94.4442 84.7301 95.8455 85.0437 97.2277 84.8642C98.61 84.6847 99.8846 84.0236 100.828 82.9972L101.996 81.7213C103.372 80.2443 105.222 79.2971 107.225 79.0445L108.92 78.8482C110.303 78.6691 111.578 78.0081 112.521 76.9816C113.464 75.9551 114.015 74.6288 114.077 73.2361L114.158 71.5051C114.252 69.484 115.054 67.5605 116.424 66.0714L117.593 64.7955C118.539 63.7698 119.092 62.443 119.156 61.0491C119.22 59.6551 118.789 58.2834 117.941 57.1758L116.888 55.7839C115.65 54.1787 115.018 52.1881 115.103 50.1628L115.184 48.4318C115.249 47.0384 114.82 45.6669 113.973 44.5586C113.126 43.4504 111.915 42.6766 110.553 42.3735L108.867 41.9988C106.893 41.5578 105.137 40.4365 103.906 38.8313L102.88 37.4573C102.033 36.3491 100.823 35.5751 99.4615 35.2715C98.1004 34.9679 96.6758 35.1543 95.4385 35.7977L93.9038 36.5918C92.1077 37.5206 90.0425 37.789 88.0686 37.3502L86.3733 36.9755C85.0124 36.6691 83.5869 36.8528 82.3481 37.4942C81.1093 38.1357 80.1366 39.1937 79.6013 40.482L78.941 42.0791C78.1622 43.9481 76.7502 45.4833 74.9527 46.4154L73.418 47.2095C72.1797 47.8508 71.2073 48.9084 70.672 50.1961C70.1367 51.4838 70.0728 52.919 70.4915 54.2492L71.009 55.8999C71.6117 57.8306 71.517 59.9117 70.7413 61.7797L70.0811 63.3768C69.5454 64.6639 69.4807 66.0987 69.8985 67.4288C70.3163 68.7588 71.1897 69.899 72.3652 70.6486L73.8195 71.5408C75.5201 72.6331 76.7832 74.2878 77.3885 76.2161L77.906 77.956C78.3226 79.2867 79.1952 80.4279 80.3702 81.1786C81.5453 81.9294 82.9475 82.2416 84.3301 82.0603L86.0432 81.8372C86.4181 81.7765 86.7967 81.7407 87.1764 81.7302Z" fill="black"/>
<path d="M95.7329 78.5449C94.5687 78.5449 93.4291 78.2104 92.4495 77.5813L91.4948 76.9745C90.8189 76.545 90.0141 76.3651 89.2196 76.466L88.0686 76.6087C86.6487 76.7935 85.209 76.4716 84.003 75.6997C82.797 74.9278 81.9018 73.7553 81.475 72.3884L81.1359 71.3088C80.8957 70.5428 80.3935 69.8857 79.7172 69.453L78.7626 68.8463C77.5647 68.0685 76.6786 66.8941 76.2594 65.5288C75.8402 64.1635 75.9145 62.6942 76.4695 61.3782L76.9067 60.3343C77.2142 59.5946 77.2521 58.7704 77.0138 58.0056L76.6747 56.9259C76.2456 55.5601 76.3119 54.0866 76.8618 52.7647C77.4118 51.4429 78.4102 50.3572 79.6816 49.6988L80.6898 49.1813C81.4017 48.8101 81.9607 48.2006 82.2691 47.4593L82.7152 46.4064C83.2691 45.0892 84.2696 44.0094 85.5407 43.3567C86.8119 42.7039 88.2725 42.5201 89.6657 42.8375L90.7721 43.0873C91.557 43.2623 92.3784 43.1549 93.0919 42.784L94.0555 42.2665C95.3257 41.607 96.7877 41.4163 98.1846 41.728C99.5814 42.0397 100.824 42.8338 101.693 43.9706L102.38 44.8629C102.869 45.5005 103.567 45.9459 104.352 46.1209L105.458 46.3708C106.861 46.6828 108.108 47.4811 108.978 48.6242C109.848 49.7673 110.286 51.1815 110.214 52.6164L110.16 53.7496C110.124 54.5517 110.37 55.3412 110.856 55.9802L111.543 56.8724C112.415 58.01 112.857 59.4185 112.791 60.8499C112.726 62.2814 112.158 63.6438 111.187 64.6973L110.419 65.5271C109.877 66.1197 109.561 66.8841 109.527 67.6863L109.482 68.757C109.419 70.1879 108.852 71.5503 107.883 72.6046C106.913 73.6589 105.603 74.3375 104.182 74.5209L103.058 74.6637C102.263 74.7694 101.53 75.1515 100.988 75.7433L100.221 76.573C99.6505 77.195 98.9569 77.6914 98.1843 78.0309C97.4116 78.3703 96.5768 78.5454 95.7329 78.5449ZM89.6568 73.7625C90.8208 73.764 91.96 74.0984 92.9402 74.7261L93.8949 75.3328C94.5706 75.7672 95.3779 75.949 96.1745 75.8462C96.9712 75.7433 97.7059 75.3625 98.2491 74.7707L99.0164 73.9409C99.9871 72.8866 101.298 72.2074 102.719 72.0226L103.843 71.8799C104.641 71.7752 105.376 71.3917 105.918 70.7973C106.46 70.203 106.775 69.436 106.806 68.6321L106.859 67.499C106.93 66.0787 107.495 64.7278 108.456 63.6802L109.224 62.8504C109.767 62.26 110.084 61.497 110.12 60.6957C110.156 59.8944 109.908 59.1061 109.42 58.4695L108.733 57.5773C107.861 56.439 107.419 55.03 107.484 53.5979L107.537 52.4647C107.575 51.6608 107.327 50.8696 106.837 50.231C106.347 49.5925 105.647 49.148 104.861 48.9761L103.754 48.7263C102.358 48.4112 101.117 47.6153 100.248 46.4778L99.5606 45.5856C99.0735 44.9476 98.3768 44.5021 97.5933 44.3274C96.8099 44.1528 95.9899 44.2602 95.2779 44.6309L94.3143 45.1216C93.0429 45.7798 91.5804 45.9693 90.1832 45.657L89.0768 45.4071C88.2936 45.2318 87.4736 45.3378 86.7607 45.7065C86.0478 46.0752 85.4874 46.6831 85.1778 47.4236L84.7138 48.5121C84.1632 49.8344 83.1652 50.9209 81.8943 51.5814L80.9307 52.0811C80.2176 52.4496 79.6575 53.058 79.349 53.799C79.0405 54.5401 79.0035 55.3662 79.2444 56.1319L79.5834 57.2115C80.0101 58.5765 79.9438 60.0481 79.396 61.3693L78.9588 62.4132C78.6501 63.1535 78.6124 63.979 78.8523 64.7445C79.0922 65.5099 79.5944 66.1662 80.2704 66.5978L81.2251 67.2045C82.4321 67.9763 83.3292 69.1481 83.7591 70.5147L84.0981 71.5943C84.3387 72.3592 84.8405 73.0151 85.5157 73.4473C86.191 73.8796 86.9967 74.0606 87.792 73.9588L88.9162 73.816C89.1618 73.783 89.4091 73.7652 89.6568 73.7625Z" fill="black"/>
<path d="M122.259 111.049H124.044V122.372H122.259V111.049Z" fill="white"/>
<path d="M122.259 123.987H124.044V128.84H122.259V123.987Z" fill="white"/>
<path d="M122.259 130.455H124.044V132.07H122.259V130.455Z" fill="white"/>
<path fill-rule="evenodd" clip-rule="evenodd" d="M100.052 100.399C100.494 99.3334 101.012 98.3072 101.6 97.3277L96.2685 85.5222L93.8326 86.6196L100.052 100.399ZM110.916 88.5775C111.703 88.1697 112.517 87.8055 113.354 87.4881L109.723 79.446L107.288 80.5435L110.916 88.5775Z" fill="black"/>
<path d="M121.635 129.608C117.624 129.608 113.703 128.418 110.367 126.19C107.032 123.961 104.433 120.794 102.898 117.088C101.363 113.382 100.961 109.305 101.744 105.371C102.526 101.437 104.458 97.8229 107.294 94.9866C110.13 92.1503 113.744 90.2187 117.678 89.4362C121.612 88.6537 125.69 89.0553 129.396 90.5903C133.102 92.1253 136.269 94.7247 138.497 98.0598C140.726 101.395 141.915 105.316 141.915 109.327C141.908 114.704 139.769 119.858 135.967 123.66C132.166 127.462 127.011 129.601 121.635 129.608ZM121.635 91.7143C118.153 91.7143 114.749 92.7468 111.855 94.6811C108.96 96.6154 106.703 99.3648 105.371 102.581C104.038 105.798 103.69 109.338 104.369 112.753C105.048 116.167 106.725 119.304 109.187 121.766C111.649 124.228 114.786 125.905 118.2 126.584C121.615 127.263 125.155 126.914 128.371 125.582C131.588 124.25 134.337 121.993 136.272 119.098C138.206 116.203 139.239 112.8 139.239 109.318C139.229 104.653 137.371 100.182 134.072 96.8839C130.772 93.586 126.3 91.7303 121.635 91.7232V91.7143Z" fill="black"/>
<path d="M119.922 117.786C119.57 117.785 119.228 117.676 118.94 117.473L112.097 112.682C111.806 112.478 111.607 112.168 111.545 111.818C111.484 111.468 111.563 111.108 111.767 110.817C111.97 110.526 112.281 110.328 112.631 110.266C112.98 110.204 113.34 110.284 113.631 110.487L119.707 114.743L129.638 101.502C129.744 101.362 129.876 101.243 130.027 101.154C130.178 101.064 130.346 101.005 130.52 100.98C130.693 100.955 130.871 100.965 131.041 101.009C131.211 101.052 131.371 101.129 131.512 101.234C131.652 101.34 131.771 101.472 131.86 101.623C131.95 101.775 132.009 101.942 132.034 102.116C132.059 102.29 132.049 102.467 132.005 102.637C131.962 102.808 131.885 102.968 131.779 103.108L121.296 117.09C121.137 117.305 120.93 117.48 120.691 117.601C120.453 117.722 120.189 117.785 119.922 117.786Z" fill="black"/>
<defs>
<filter id="filter0_f_28_2251" x="0.25" y="43.3203" width="128.75" height="128.75" filterUnits="userSpaceOnUse" color-interpolation-filters="sRGB">
<feFlood flood-opacity="0" result="BackgroundImageFix"/>
<feBlend mode="normal" in="SourceGraphic" in2="BackgroundImageFix" result="shape"/>
<feGaussianBlur stdDeviation="20" result="effect1_foregroundBlur_28_2251"/>
</filter>
<filter id="filter1_f_28_2251" x="69.1592" y="0.738953" width="121.25" height="121.25" filterUnits="userSpaceOnUse" color-interpolation-filters="sRGB">
<feFlood flood-opacity="0" result="BackgroundImageFix"/>
<feBlend mode="normal" in="SourceGraphic" in2="BackgroundImageFix" result="shape"/>
<feGaussianBlur stdDeviation="20" result="effect1_foregroundBlur_28_2251"/>
</filter>
</defs>
</svg>
