<svg width="32" height="32" viewBox="0 0 32 32" fill="none" xmlns="http://www.w3.org/2000/svg">
<rect width="32" height="32" rx="16" fill="white"/>
<path fill-rule="evenodd" clip-rule="evenodd" d="M13.0388 18.6241C13.0029 18.5638 12.9163 18.5638 12.8804 18.6241L11.8521 20.3479C11.7501 20.5247 11.6881 20.7863 11.6873 20.9908C11.6873 21.7145 12.2725 22.2956 12.9882 22.2797C13.6125 22.2659 14.1428 21.78 14.2218 21.1545C14.2274 21.1102 14.2307 21.0662 14.2316 21.0227C14.2363 20.807 14.1739 20.533 14.0662 20.3465L13.0388 18.6241ZM9.47652 18.6241C9.44057 18.5638 9.354 18.5638 9.31805 18.6241L8.2898 20.3479C8.18777 20.5247 8.12572 20.7863 8.125 20.9908C8.125 21.7145 8.71013 22.2956 9.4259 22.2797C10.0501 22.2659 10.5805 21.78 10.6595 21.1545C10.6651 21.1102 10.6683 21.0662 10.6693 21.0227C10.6739 20.807 10.6116 20.533 10.5039 20.3465L9.47652 18.6241ZM16.6012 18.6241C16.5652 18.5638 16.4787 18.5638 16.4427 18.6241L15.4145 20.3479C15.3124 20.5247 15.2504 20.7863 15.2497 20.9908C15.2497 21.7145 15.8348 22.2956 16.5506 22.2797C17.1748 22.2659 17.7051 21.78 17.7842 21.1545C17.7898 21.1102 17.793 21.0662 17.7939 21.0227C17.7986 20.807 17.7363 20.533 17.6286 20.3465L16.6012 18.6241ZM12.0588 12.0074L12.0404 12.1706C10.1591 12.4773 8.50668 13.7376 8.50668 15.9516V16.1934C8.50668 16.8081 8.50668 16.8404 9.05838 16.8421L16.7637 16.8422C17.3784 16.8422 17.4107 16.8422 17.4124 16.2905L17.4125 15.9516C17.4125 13.7709 15.8094 12.5154 13.9634 12.1851C14.6043 8.07484 21.2166 8.29539 21.2166 12.8473V22.1857H23.1122L23.125 12.8473C23.1372 5.83665 12.8899 5.56795 12.0588 12.0074Z" fill="#163435"/>
</svg>
