<svg width="32" height="32" viewBox="0 0 32 32" fill="none" xmlns="http://www.w3.org/2000/svg">
<rect width="32" height="32" rx="16" fill="white"/>
<path fill-rule="evenodd" clip-rule="evenodd" d="M22.0308 13.5524C23.2405 12.3144 24.1194 11.3788 24.1194 10.2636C24.1194 9.00666 23.2405 8.30731 21.993 8.30731C20.5376 8.30731 19.8761 9.17677 19.8572 9.31853C19.8383 9.46029 20.5093 10.2636 20.6888 10.377C20.8022 10.2447 21.0952 9.83831 21.6906 9.83831C22.2198 9.83831 22.4183 10.1785 22.4183 10.5566C22.4183 11.3977 21.0857 12.4372 19.8477 13.8359C19.8099 14.0344 19.98 15.0078 20.0273 15.0361C20.084 15.0739 23.8075 15.055 23.9965 15.0267C24.0816 15.0361 24.1288 13.6375 24.0249 13.5429L22.0497 13.5902L22.0308 13.5524Z" fill="#163435"/>
<path fill-rule="evenodd" clip-rule="evenodd" d="M15.6391 8.50071C16.4003 8.50927 16.8018 8.59659 17.2185 8.82548C17.6221 9.04715 17.9422 9.3759 18.1581 9.79039C18.3933 10.2422 18.475 10.6765 18.475 11.5463V19.7037C18.475 20.5735 18.3933 21.0078 18.1581 21.4596C17.9422 21.8741 17.6221 22.2028 17.2185 22.4245C16.7787 22.6661 16.3558 22.75 15.5088 22.75H10.9411C10.0942 22.75 9.67129 22.6661 9.23141 22.4245C8.82783 22.2028 8.50773 21.8741 8.29189 21.4596C8.05664 21.0078 7.97498 20.5735 7.97498 19.7037L7.97566 11.4125C7.984 10.6307 8.06902 10.2184 8.29189 9.79039C8.50773 9.3759 8.82783 9.04715 9.23141 8.82548C9.67129 8.58387 10.0942 8.5 10.9411 8.5L15.6391 8.50071ZM15.4606 10.6182H10.9893C10.6583 10.6182 10.5383 10.6527 10.4173 10.7174C10.2963 10.7821 10.2014 10.8771 10.1366 10.9981C10.0719 11.1191 10.0375 11.2391 10.0375 11.5701V13.5178C10.0375 13.8487 10.0719 13.9687 10.1366 14.0897C10.2014 14.2107 10.2963 14.3057 10.4173 14.3704C10.5383 14.4351 10.6583 14.4696 10.9893 14.4696H15.4606C15.7916 14.4696 15.9116 14.4351 16.0326 14.3704C16.1536 14.3057 16.2486 14.2107 16.3133 14.0897C16.378 13.9687 16.4125 13.8487 16.4125 13.5178V11.5701C16.4125 11.2391 16.378 11.1191 16.3133 10.9981C16.2486 10.8771 16.1536 10.7821 16.0326 10.7174C15.9116 10.6527 15.7916 10.6182 15.4606 10.6182Z" fill="#163435"/>
<path fill-rule="evenodd" clip-rule="evenodd" d="M17.5064 19.7477C17.5064 20.0192 17.7055 20.2304 17.9457 20.2304H22.2359L20.8905 21.7087C20.7258 21.8898 20.7258 22.1839 20.8905 22.3649C21.0553 22.546 21.323 22.546 21.4877 22.3649L23.5676 20.072C23.7323 19.891 23.7323 19.5969 23.5676 19.4158L21.4809 17.1229C21.3161 16.9419 21.0484 16.9419 20.8837 17.1229C20.7189 17.304 20.7189 17.5981 20.8837 17.7791L22.2359 19.265H17.9457C17.6986 19.265 17.5064 19.4762 17.5064 19.7477Z" fill="#163435"/>
</svg>
