<svg width="1432" height="905" viewBox="0 0 1432 905" fill="none" xmlns="http://www.w3.org/2000/svg">
<path fill-rule="evenodd" clip-rule="evenodd" d="M716.89 0.453193C825.706 -2.56143 928.582 8.72067 1025.71 56.8142C1185.72 136.039 1439.47 183.524 1440.96 358.974C1442.46 534.079 1184.53 576.375 1030.91 666.219C931.049 724.622 829.717 754.685 716.89 782.448C537.746 826.53 348.826 967.957 191.853 872.683C29.0988 773.902 -33.4125 539.166 19.1688 358.974C66.728 195.993 271.706 152.262 425.074 73.4542C517.479 25.9721 612.558 3.34359 716.89 0.453193Z" fill="#A1D9D6"/>
<path fill-rule="evenodd" clip-rule="evenodd" d="M1162.89 904.851C1127.01 905.845 1093.09 902.124 1061.06 886.265C1008.3 860.141 924.621 844.482 924.127 786.627C923.635 728.885 1008.69 714.938 1059.34 685.312C1092.27 666.053 1125.69 656.14 1162.89 646.985C1221.97 632.449 1284.26 585.812 1336.03 617.229C1389.7 649.803 1410.31 727.208 1392.97 786.627C1377.29 840.371 1309.7 854.791 1259.12 880.778C1228.65 896.436 1197.3 903.897 1162.89 904.851Z" fill="#A1D9D6"/>
</svg>
